<svg xmlns="http://www.w3.org/2000/svg" viewBox="0 0 280.03 136.52"><defs><style>.cls-1,.cls-9{fill:#fece11;}.cls-1,.cls-10,.cls-11,.cls-4,.cls-6{stroke:#231f20;}.cls-1,.cls-10,.cls-11,.cls-4,.cls-5,.cls-6{stroke-miterlimit:10;}.cls-2{fill:#ffcb14;opacity:0.47;}.cls-3{fill:#f3b61b;}.cls-4{fill:none;}.cls-5,.cls-6{fill:#fdbb3a;stroke-width:2px;}.cls-5{stroke:#fdfbe0;}.cls-7{fill:#fef6a8;opacity:0.56;}.cls-8{fill:#888566;}.cls-10{font-size:37.17px;}.cls-10,.cls-11{fill:#009444;font-family:KristenITC-Regular, Kristen ITC;}.cls-11{font-size:37.95px;}</style></defs><g id="Layer_2" data-name="Layer 2"><g id="Layer_2-2" data-name="Layer 2"><path class="cls-1" d="M168.53,93.37a4,4,0,0,1-.62,1.06,9.74,9.74,0,0,1-3,2.3,25.22,25.22,0,0,1-3.7,1.53c-.83.28-1.73.55-2.68.8-1.16.3-2.4.58-3.7.83-.87.17-1.76.33-2.68.47-1.19.18-2.43.34-3.7.48-.88.1-1.77.18-2.69.25-1.2.1-2.44.18-3.69.23-.89,0-1.78.07-2.69.08-.69,0-1.38,0-2.08,0h-1.62c-.9,0-1.8,0-2.68-.07-1.36,0-2.69-.13-4-.23-.91-.07-1.81-.16-2.68-.25-1.38-.15-2.71-.32-4-.52-.92-.14-1.82-.3-2.68-.47-1.31-.25-2.55-.53-3.7-.84-1-.25-1.85-.52-2.68-.8a24.08,24.08,0,0,1-4-1.72,9,9,0,0,1-2.69-2.12,3.58,3.58,0,0,1-.52-.87"/><path class="cls-1" d="M106,93.52a2.76,2.76,0,0,1-.25-1.12V78.48a2,2,0,0,0,0,.23.83.83,0,0,0,0,.22v0a2.79,2.79,0,0,0,.1.39l0,.09s.05.11.07.17.08.17.13.26l.09.16.18.28.12.15a5.24,5.24,0,0,0,.65.7l.24.21a10.62,10.62,0,0,0,1.8,1.22c.47.26,1,.52,1.55.77l.4.17c.43.19.88.36,1.35.54l.69.23.74.25,1,.29,1,.27.69.18.52.12.47.11c.65.15,1.32.29,2,.43l1.38.26h0l1,.16.29,0c1.28.2,2.61.37,4,.52l.65.06h0l.45,0,.51,0,.74.07.33,0,.88.07.82,0,.54,0,.48,0,.77,0,.5,0,1.13,0,1.45,0h1.72l2.08,0c.91,0,1.8,0,2.69-.08,1.25-.06,2.49-.14,3.69-.23.92-.07,1.81-.16,2.69-.26,1.27-.13,2.51-.29,3.7-.47.92-.15,1.81-.3,2.68-.47,1.3-.25,2.54-.53,3.7-.83,1-.25,1.85-.52,2.68-.8a25.19,25.19,0,0,0,3.7-1.54,9.45,9.45,0,0,0,3-2.3,3.24,3.24,0,0,0,.8-2V92.4a2.73,2.73,0,0,1-.18,1"/><path class="cls-2" d="M105.83,79a2.79,2.79,0,0,0,.1.39A2.79,2.79,0,0,1,105.83,79Z"/><path class="cls-3" d="M109.24,82.59V96.51a9,9,0,0,1-2.69-2.12V80.46a5.24,5.24,0,0,0,.65.7l.24.21A10.62,10.62,0,0,0,109.24,82.59Z"/><path class="cls-3" d="M115.91,85.11V99c-1-.25-1.85-.52-2.68-.8V84.3l.74.25,1,.29Z"/><path class="cls-3" d="M122.29,86.42v13.92c-.92-.14-1.82-.3-2.68-.47V86l1.38.26h0l1,.16Z"/><path class="cls-3" d="M129,87.18v13.93c-.91-.07-1.81-.16-2.68-.25V86.94l.65.06h0l.45,0,.51,0,.74.07Z"/><path class="cls-3" d="M135.63,87.49v13.92c-.9,0-1.8,0-2.68-.07V87.42l1.13,0,1.45,0h.1Z"/><path class="cls-3" d="M142,87.4v13.92c-.89,0-1.78.07-2.69.08V87.48C140.24,87.46,141.13,87.44,142,87.4Z"/><path class="cls-3" d="M148.4,86.91v13.93c-.88.1-1.77.18-2.69.25V87.17C146.63,87.1,147.52,87,148.4,86.91Z"/><path class="cls-3" d="M154.78,86V99.89c-.87.17-1.76.33-2.68.47V86.44C153,86.29,153.91,86.14,154.78,86Z"/><path class="cls-3" d="M161.16,84.34V98.26c-.83.28-1.73.55-2.68.8V85.14C159.43,84.89,160.33,84.62,161.16,84.34Z"/><path class="cls-3" d="M167.91,80.5V94.43a9.74,9.74,0,0,1-3,2.3V82.8A9.45,9.45,0,0,0,167.91,80.5Z"/><path class="cls-4" d="M137.38,72.64c-13.92,0-25.21,2.55-25.21,5.7,0,.68.52,1.33,1.49,1.94a14.54,14.54,0,0,0,3.39,1.43,38.71,38.71,0,0,0,4.4,1.05c1.47.27,3.08.5,4.8.7l1.11.11c1.72.17,3.53.3,5.43.38,1.05,0,2.12.07,3.21.08h1.38c1.7,0,3.35,0,5-.11,11.55-.52,20.25-2.82,20.25-5.59C162.59,75.19,151.3,72.64,137.38,72.64Z"/><path class="cls-5" d="M105.78,78.48a2,2,0,0,0,0,.23.83.83,0,0,0,0,.22v0a2.79,2.79,0,0,0,.1.39l0,.09c0,.06.05.11.07.17s.08.17.13.26l.09.16.18.28.12.15a5.24,5.24,0,0,0,.65.7l.24.21a10.62,10.62,0,0,0,1.8,1.22c.47.26,1,.52,1.55.77l.4.17c.43.19.88.36,1.35.54l1.43.48,1,.29,1.67.45.52.12.47.11c1.08.25,2.21.48,3.4.69h0l1,.16c1.56.25,3.21.46,4.93.63h0l.45,0,.51,0,.74.07,1.21.09.82,0,.54,0,.48,0,.77,0,1.63,0,1.45,0h1.72c17.37,0,31.46-4,31.46-9"/><path class="cls-4" d="M162.58,78.48a.66.66,0,0,0,0-.14c0-3.15-11.29-5.7-25.21-5.7s-25.21,2.55-25.21,5.7a.66.66,0,0,0,0,.14"/><path class="cls-6" d="M105.78,78.48c0-5,14.09-9,31.47-9s31.46,4,31.46,9"/><path class="cls-7" d="M142.34,83.93l-6.81,3.56h0l-1.45,0-1.63,0-.77,0-.48,0-.54,0-.82,0L136,84h1.38C139.08,84,140.73,84,142.34,83.93Z"/><path class="cls-7" d="M132.79,84l-5.86,3h0c-1.72-.17-3.37-.38-4.93-.63l5.36-2.8C129.08,83.74,130.89,83.87,132.79,84Z"/><path class="cls-7" d="M126.25,83.46,121,86.21h0c-1.19-.21-2.32-.44-3.4-.69l-.47-.11-.52-.12,4.85-2.53C122.92,83,124.53,83.26,126.25,83.46Z"/><path class="cls-7" d="M117.05,81.71l-4.51,2.36c-.47-.18-.92-.35-1.35-.54l-.4-.17c-.56-.25-1.08-.51-1.55-.77l4.42-2.31A14.54,14.54,0,0,0,117.05,81.71Z"/><path class="cls-8" d="M164.42,78.34c-.55,7-18.41,6.28-23.67,6.51-4.43.21-9.06.21-13.52,0-4.65-.39-9.34-.7-13.69-2.62-2.1-.89-4.23-3.29-2.69-5.67a6.32,6.32,0,0,1,2.69-2.21,31.54,31.54,0,0,1,10.3-2.3,102.13,102.13,0,0,1,13.54-.24c5.63-.13,26.37-1,27,6.49Zm-3.67,0c0,.11.06.19,0,.16a3.5,3.5,0,0,0-1.2-.88c-6.88-3-14.7-3.73-22.2-4.19a94,94,0,0,0-13.14,1.48,38.65,38.65,0,0,0-9.06,2.73,3.82,3.82,0,0,0-1.2.86.27.27,0,0,0,0-.16c0-.12-.06-.2,0-.16a9.34,9.34,0,0,0,4,2c1.56.38,3.07,1,4.67,1.22,9.12,1.85,18.74,2.48,27.89.51a38.7,38.7,0,0,0,9-2.84,3.74,3.74,0,0,0,1.2-.88.44.44,0,0,0,0,.17Z"/><path class="cls-4" d="M168.53,93.37a4,4,0,0,1-.62,1.06,9.74,9.74,0,0,1-3,2.3,25.22,25.22,0,0,1-3.7,1.53c-.83.28-1.73.55-2.68.8-1.16.3-2.4.58-3.7.83-.87.17-1.76.33-2.68.47-1.19.18-2.43.34-3.7.48-.88.1-1.77.18-2.69.25-1.2.1-2.44.18-3.69.23-.89,0-1.78.07-2.69.08-.69,0-1.38,0-2.08,0h-1.62c-.9,0-1.8,0-2.68-.07-1.36,0-2.69-.13-4-.23-.91-.07-1.81-.16-2.68-.25-1.38-.15-2.71-.32-4-.52-.92-.14-1.82-.3-2.68-.47-1.31-.25-2.55-.53-3.7-.84-1-.25-1.85-.52-2.68-.8a24.08,24.08,0,0,1-4-1.72,9,9,0,0,1-2.69-2.12,3.58,3.58,0,0,1-.52-.87"/><path class="cls-9" d="M162.59,78.34c0,2.77-8.7,5.07-20.25,5.59-1.61.07-3.26.11-5,.11H136c-1.09,0-2.16,0-3.21-.08-1.9-.08-3.71-.21-5.43-.38l-1.11-.11c-1.72-.2-3.33-.43-4.8-.7a38.71,38.71,0,0,1-4.4-1.05,14.54,14.54,0,0,1-3.39-1.43c-1-.61-1.49-1.26-1.49-1.94,0-3.15,11.29-5.7,25.21-5.7S162.59,75.19,162.59,78.34Z"/><path class="cls-1" d="M169.27,76.55a3.62,3.62,0,0,1-.62,1.06,9.34,9.34,0,0,1-3.05,2.3,25.19,25.19,0,0,1-3.7,1.54c-.83.28-1.73.55-2.68.8-1.16.3-2.39.58-3.7.83-.86.17-1.76.32-2.68.46-1.19.19-2.43.35-3.7.48-.88.1-1.77.19-2.68.26-1.21.09-2.44.17-3.7.22-.88,0-1.78.07-2.68.09l-2.09,0h-1.61l-2.69-.07q-2-.09-4-.24c-.91-.07-1.8-.15-2.68-.25-1.38-.14-2.71-.32-4-.51-.92-.15-1.82-.3-2.68-.47-1.31-.26-2.54-.54-3.7-.84-1-.26-1.85-.52-2.68-.81a24.11,24.11,0,0,1-4-1.71,8.84,8.84,0,0,1-2.68-2.13,3.78,3.78,0,0,1-.53-.86"/><path class="cls-1" d="M106.77,76.71a2.8,2.8,0,0,1-.24-1.13V61.66a1.77,1.77,0,0,0,0,.23.78.78,0,0,0,0,.22v0a2.85,2.85,0,0,0,.11.39.24.24,0,0,0,0,.08,1.42,1.42,0,0,0,.08.18,1.92,1.92,0,0,0,.12.25l.09.17.18.27a1.83,1.83,0,0,0,.13.16,5.09,5.09,0,0,0,.64.69l.24.21a11,11,0,0,0,1.8,1.22,17.2,17.2,0,0,0,1.55.78l.4.17c.43.18.88.36,1.36.53l.68.24.75.24,1,.29,1,.27.7.18.51.13.47.11c.65.15,1.33.29,2,.42l1.39.26h0l1,.17.29,0c1.28.2,2.61.37,4,.52l.65.07h0l.44,0,.51,0,.75.06.32,0,.89.06.81.06.55,0,.47,0,.78,0,.49,0,1.13,0c.48,0,1,0,1.45,0H138l2.09,0c.9,0,1.8,0,2.68-.09,1.26,0,2.49-.13,3.7-.23.91-.07,1.8-.15,2.68-.25,1.27-.14,2.51-.3,3.7-.48.92-.14,1.82-.3,2.68-.46,1.31-.26,2.54-.53,3.7-.84.95-.25,1.85-.51,2.68-.8A25.22,25.22,0,0,0,165.6,66a9.48,9.48,0,0,0,3.05-2.3,3.19,3.19,0,0,0,.8-2V75.58a2.69,2.69,0,0,1-.18,1"/><path class="cls-2" d="M106.57,62.15a2.85,2.85,0,0,0,.11.39A2.85,2.85,0,0,1,106.57,62.15Z"/><path class="cls-3" d="M110,65.77V79.7a8.84,8.84,0,0,1-2.68-2.13V63.65a5.09,5.09,0,0,0,.64.69l.24.21A11,11,0,0,0,110,65.77Z"/><path class="cls-3" d="M116.65,68.29V82.22c-1-.26-1.85-.52-2.68-.81V67.49l.75.24,1,.29Z"/><path class="cls-3" d="M123,69.6V83.53c-.92-.15-1.82-.3-2.68-.47V69.13l1.39.26h0l1,.17Z"/><path class="cls-3" d="M129.7,70.37V84.29c-.91-.07-1.8-.15-2.68-.25V70.12l.65.07h0l.44,0,.51,0,.75.06Z"/><path class="cls-3" d="M136.38,70.67V84.6l-2.69-.07V70.6l1.13,0c.48,0,1,0,1.45,0h.11Z"/><path class="cls-3" d="M142.76,70.58V84.5c-.88,0-1.78.07-2.68.09V70.67C141,70.65,141.88,70.62,142.76,70.58Z"/><path class="cls-3" d="M149.14,70.1V84c-.88.1-1.77.19-2.68.26V70.35C147.37,70.28,148.26,70.2,149.14,70.1Z"/><path class="cls-3" d="M155.52,69.16V83.08c-.86.17-1.76.32-2.68.46V69.62C153.76,69.48,154.66,69.32,155.52,69.16Z"/><path class="cls-3" d="M161.9,67.52V81.45c-.83.28-1.73.55-2.68.8V68.32C160.17,68.07,161.07,67.81,161.9,67.52Z"/><path class="cls-3" d="M168.65,63.69V77.61a9.34,9.34,0,0,1-3.05,2.3V66A9.48,9.48,0,0,0,168.65,63.69Z"/><path class="cls-4" d="M138.12,55.82c-13.92,0-25.21,2.56-25.21,5.7,0,.68.53,1.34,1.49,1.94a14.86,14.86,0,0,0,3.4,1.44,40.19,40.19,0,0,0,4.39,1c1.47.27,3.08.5,4.81.69.36,0,.73.08,1.1.12,1.72.17,3.54.29,5.43.37q1.58.08,3.21.09h1.38c1.7,0,3.36,0,5-.11,11.55-.52,20.25-2.83,20.25-5.6C163.33,58.38,152,55.82,138.12,55.82Z"/><path class="cls-5" d="M106.53,61.66a1.69,1.69,0,0,0,0,.23.78.78,0,0,0,0,.22v0a2.85,2.85,0,0,0,.11.39.24.24,0,0,0,0,.08,1.42,1.42,0,0,0,.08.18,1.92,1.92,0,0,0,.12.25l.09.17.18.27a1.83,1.83,0,0,0,.13.16,5.09,5.09,0,0,0,.64.69l.24.21a11,11,0,0,0,1.8,1.22,17.2,17.2,0,0,0,1.55.78l.4.17c.43.18.88.36,1.36.53s.93.33,1.43.48l1,.29q.81.24,1.68.45l.51.13.47.11c1.08.25,2.22.47,3.41.68h0l1,.17c1.57.25,3.22.46,4.93.63h0l.44,0,.51,0,.75.06c.4,0,.8.07,1.21.09l.81.06.55,0,.47,0,.78,0,1.62.06,1.45,0H138c17.38,0,31.46-4,31.46-9"/><path class="cls-4" d="M163.32,61.66a.66.66,0,0,0,0-.14c0-3.14-11.29-5.7-25.21-5.7s-25.21,2.56-25.21,5.7c0,0,0,.09,0,.14"/><path class="cls-6" d="M106.53,61.66c0-5,14.08-9,31.46-9s31.46,4,31.46,9"/><path class="cls-7" d="M143.08,67.12l-6.81,3.55h0c-.49,0-1,0-1.45,0l-1.62-.06-.78,0-.47,0-.55,0-.81-.06,6.15-3.21h1.38C139.82,67.23,141.48,67.19,143.08,67.12Z"/><path class="cls-7" d="M133.53,67.13l-5.85,3.06h0c-1.71-.17-3.36-.38-4.93-.63l5.36-2.8C129.82,66.93,131.64,67.05,133.53,67.13Z"/><path class="cls-7" d="M127,66.64l-5.26,2.75h0c-1.19-.21-2.33-.43-3.41-.68l-.47-.11-.51-.13L122.19,66C123.66,66.22,125.27,66.45,127,66.64Z"/><path class="cls-7" d="M117.8,64.9l-4.51,2.35c-.48-.17-.93-.35-1.36-.53l-.4-.17a17.2,17.2,0,0,1-1.55-.78l4.42-2.31A14.86,14.86,0,0,0,117.8,64.9Z"/><path class="cls-8" d="M165.17,61.52c-.56,7-18.42,6.29-23.68,6.52-4.43.21-9.06.2-13.52,0-4.65-.38-9.34-.7-13.68-2.61-2.11-.89-4.23-3.3-2.7-5.68a6.3,6.3,0,0,1,2.69-2.2,31,31,0,0,1,10.3-2.3A98.84,98.84,0,0,1,138.12,55c5.63-.13,26.37-1,27,6.48Zm-3.68,0c0,.12.06.2,0,.17a3.33,3.33,0,0,0-1.19-.88c-6.88-3-14.71-3.73-22.21-4.2A95.55,95.55,0,0,0,125,58.1a37.65,37.65,0,0,0-9,2.73,3.6,3.6,0,0,0-1.2.86s0,0,0-.17,0-.19,0-.16a9.3,9.3,0,0,0,4,2c1.56.37,3.07.95,4.67,1.21,9.13,1.86,18.75,2.49,27.89.51a38.76,38.76,0,0,0,9.05-2.83,4.15,4.15,0,0,0,1.2-.88s0,0,0,.16Z"/><path class="cls-4" d="M169.27,76.55a3.62,3.62,0,0,1-.62,1.06,9.34,9.34,0,0,1-3.05,2.3,25.19,25.19,0,0,1-3.7,1.54c-.83.28-1.73.55-2.68.8-1.16.3-2.39.58-3.7.83-.86.17-1.76.32-2.68.46-1.19.19-2.43.35-3.7.48-.88.1-1.77.19-2.68.26-1.21.09-2.44.17-3.7.22-.88,0-1.78.07-2.68.09l-2.09,0h-1.61l-2.69-.07q-2-.09-4-.24c-.91-.07-1.8-.15-2.68-.25-1.38-.14-2.71-.32-4-.51-.92-.15-1.82-.3-2.68-.47-1.31-.26-2.54-.54-3.7-.84-1-.26-1.85-.52-2.68-.81a24.11,24.11,0,0,1-4-1.71,8.84,8.84,0,0,1-2.68-2.13,3.78,3.78,0,0,1-.53-.86"/><path class="cls-9" d="M163.33,61.52c0,2.77-8.7,5.08-20.25,5.6-1.6.07-3.26.11-5,.11h-1.38q-1.63,0-3.21-.09c-1.89-.08-3.71-.2-5.43-.37-.37,0-.74-.07-1.1-.12-1.73-.19-3.34-.42-4.81-.69a40.19,40.19,0,0,1-4.39-1,14.86,14.86,0,0,1-3.4-1.44c-1-.6-1.49-1.26-1.49-1.94,0-3.14,11.29-5.7,25.21-5.7S163.33,58.38,163.33,61.52Z"/><path class="cls-1" d="M171.88,59.15a3.76,3.76,0,0,1-.62,1.06,9.62,9.62,0,0,1-3,2.3,24.77,24.77,0,0,1-3.7,1.53c-.83.28-1.73.55-2.68.8-1.16.31-2.39.58-3.7.84-.86.16-1.76.32-2.68.46-1.19.18-2.43.34-3.7.48-.88.1-1.77.18-2.68.25-1.21.1-2.44.18-3.7.23-.88,0-1.78.07-2.68.08-.69,0-1.39,0-2.09,0H139c-.91,0-1.8,0-2.69-.07-1.36-.05-2.69-.13-4-.23-.92-.07-1.81-.16-2.69-.25-1.38-.15-2.71-.32-4-.52-.92-.14-1.82-.3-2.68-.46-1.31-.26-2.54-.54-3.7-.85-1-.25-1.85-.52-2.68-.8a23.26,23.26,0,0,1-4-1.72,8.68,8.68,0,0,1-2.68-2.12,3.63,3.63,0,0,1-.53-.87"/><path class="cls-1" d="M109.38,59.3a2.75,2.75,0,0,1-.24-1.12V44.26a1.85,1.85,0,0,0,0,.23,1.66,1.66,0,0,0,0,.22v0a2.85,2.85,0,0,0,.11.39.16.16,0,0,0,0,.09,1.22,1.22,0,0,0,.07.17c0,.09.08.17.12.26l.09.16.19.28a.79.79,0,0,0,.12.15,5.14,5.14,0,0,0,.64.7l.24.21a11,11,0,0,0,1.8,1.22c.47.26,1,.52,1.55.77l.4.18c.43.18.88.35,1.36.53l.68.23c.24.09.49.17.75.25l1,.29,1,.27.7.18.51.12.47.11c.65.15,1.33.3,2,.43l1.39.26h0l1,.16.29.05c1.28.2,2.61.37,4,.52l.65.06h0l.44,0,.52,0,.74.07.33,0,.88.07.81,0,.55,0,.47,0,.78,0,.49,0c.38,0,.75,0,1.13,0l1.45,0h1.72c.7,0,1.4,0,2.09,0,.9,0,1.8,0,2.68-.08,1.26-.06,2.49-.13,3.7-.23.91-.07,1.8-.16,2.68-.26,1.27-.13,2.51-.29,3.7-.47.92-.15,1.82-.3,2.68-.47,1.31-.25,2.54-.53,3.7-.83.95-.25,1.85-.52,2.68-.8a23.73,23.73,0,0,0,3.7-1.54,9.34,9.34,0,0,0,3-2.3,3.19,3.19,0,0,0,.8-2V58.18a2.73,2.73,0,0,1-.18,1"/><path class="cls-2" d="M109.18,44.74a2.85,2.85,0,0,0,.11.39A2.85,2.85,0,0,1,109.18,44.74Z"/><path class="cls-3" d="M112.59,48.37V62.29a8.68,8.68,0,0,1-2.68-2.12V46.24a5.14,5.14,0,0,0,.64.7l.24.21A11,11,0,0,0,112.59,48.37Z"/><path class="cls-3" d="M119.26,50.89V64.81c-1-.25-1.85-.52-2.68-.8V50.08c.24.09.49.17.75.25l1,.29Z"/><path class="cls-3" d="M125.64,52.2V66.12c-.92-.14-1.82-.3-2.68-.46V51.73l1.39.26h0l1,.16Z"/><path class="cls-3" d="M132.32,53V66.89c-.92-.07-1.81-.16-2.69-.25V52.72l.65.06h0l.44,0,.52,0,.74.07Z"/><path class="cls-3" d="M139,53.27V67.19c-.91,0-1.8,0-2.69-.07V53.2c.38,0,.75,0,1.13,0l1.45,0H139Z"/><path class="cls-3" d="M145.37,53.18V67.1c-.88,0-1.78.07-2.68.08V53.26C143.59,53.24,144.49,53.22,145.37,53.18Z"/><path class="cls-3" d="M151.75,52.69V66.62c-.88.1-1.77.18-2.68.25V53C150,52.88,150.87,52.79,151.75,52.69Z"/><path class="cls-3" d="M158.13,51.75V65.68c-.86.16-1.76.32-2.68.46V52.22C156.37,52.07,157.27,51.92,158.13,51.75Z"/><path class="cls-3" d="M164.51,50.12V64c-.83.28-1.73.55-2.68.8V50.92C162.78,50.67,163.68,50.4,164.51,50.12Z"/><path class="cls-3" d="M171.26,46.28V60.21a9.62,9.62,0,0,1-3,2.3V48.58A9.34,9.34,0,0,0,171.26,46.28Z"/><path class="cls-4" d="M140.73,38.42c-13.92,0-25.21,2.55-25.21,5.7,0,.68.53,1.33,1.49,1.94a14.45,14.45,0,0,0,3.4,1.43,38,38,0,0,0,4.39,1c1.47.27,3.08.51,4.81.7l1.1.11c1.72.17,3.54.3,5.43.38,1.05,0,2.12.07,3.21.08h1.38c1.7,0,3.36,0,5-.11,11.55-.52,20.25-2.82,20.25-5.59C165.94,41,154.65,38.42,140.73,38.42Z"/><path class="cls-5" d="M109.14,44.26a1.85,1.85,0,0,0,0,.23,1.66,1.66,0,0,0,0,.22v0a2.85,2.85,0,0,0,.11.39.16.16,0,0,0,0,.09.87.87,0,0,0,.07.17c0,.09.08.17.12.26l.09.16.19.28a.79.79,0,0,0,.12.15,5.14,5.14,0,0,0,.64.7l.24.21a11,11,0,0,0,1.8,1.22c.47.26,1,.52,1.55.77l.4.18c.43.18.88.35,1.36.53l1.43.48,1,.29,1.68.45.51.12.47.11c1.08.25,2.22.48,3.41.69h0l1,.16c1.57.25,3.22.46,4.93.63h0l.44,0,.52,0,.74.07,1.21.09.81,0,.55,0,.47,0,.78,0,1.62,0,1.45,0h1.72c17.38,0,31.46-4,31.46-9"/><path class="cls-4" d="M165.94,44.26v-.14c0-3.15-11.29-5.7-25.21-5.7s-25.21,2.55-25.21,5.7c0,.05,0,.09,0,.14"/><path class="cls-6" d="M109.14,44.26c0-5,14.08-9,31.46-9s31.46,4,31.46,9"/><path class="cls-7" d="M145.69,49.71l-6.81,3.56h0l-1.45,0-1.62,0-.78,0-.47,0-.55,0-.81,0,6.15-3.22h1.38C142.43,49.82,144.09,49.79,145.69,49.71Z"/><path class="cls-7" d="M136.14,49.73l-5.85,3.05h0c-1.71-.17-3.36-.38-4.93-.63l5.36-2.8C132.43,49.52,134.25,49.65,136.14,49.73Z"/><path class="cls-7" d="M129.61,49.24,124.35,52h0c-1.19-.21-2.33-.44-3.41-.69l-.47-.11-.51-.12,4.84-2.53C126.27,48.81,127.88,49.05,129.61,49.24Z"/><path class="cls-7" d="M120.41,47.49l-4.51,2.36c-.48-.18-.93-.35-1.36-.53l-.4-.18c-.56-.25-1.08-.51-1.55-.77L117,46.06A14.45,14.45,0,0,0,120.41,47.49Z"/><path class="cls-8" d="M167.78,44.12c-.56,7-18.41,6.28-23.67,6.51-4.44.21-9.07.21-13.52,0-4.66-.39-9.34-.7-13.69-2.62-2.11-.89-4.23-3.29-2.7-5.67a6.32,6.32,0,0,1,2.69-2.21,31.54,31.54,0,0,1,10.3-2.3,102.16,102.16,0,0,1,13.54-.24c5.63-.13,26.37-1,27.05,6.49Zm-3.67,0c0,.11,0,.2,0,.16a3.45,3.45,0,0,0-1.19-.88c-6.88-3-14.71-3.72-22.21-4.19a92.71,92.71,0,0,0-13.14,1.49,38.09,38.09,0,0,0-9,2.72,3.48,3.48,0,0,0-1.2.87s0-.06,0-.17,0-.2,0-.16a9.4,9.4,0,0,0,4,2c1.56.38,3.07,1,4.67,1.22,9.13,1.85,18.75,2.48,27.89.51a38.78,38.78,0,0,0,9.05-2.84,3.88,3.88,0,0,0,1.2-.87s0,0,0,.16Z"/><path class="cls-4" d="M171.88,59.15a3.76,3.76,0,0,1-.62,1.06,9.62,9.62,0,0,1-3,2.3,24.77,24.77,0,0,1-3.7,1.53c-.83.28-1.73.55-2.68.8-1.16.31-2.39.58-3.7.84-.86.16-1.76.32-2.68.46-1.19.18-2.43.34-3.7.48-.88.1-1.77.18-2.68.25-1.21.1-2.44.18-3.7.23-.88,0-1.78.07-2.68.08-.69,0-1.39,0-2.09,0H139c-.91,0-1.8,0-2.69-.07-1.36-.05-2.69-.13-4-.23-.92-.07-1.81-.16-2.69-.25-1.38-.15-2.71-.32-4-.52-.92-.14-1.82-.3-2.68-.46-1.31-.26-2.54-.54-3.7-.85-1-.25-1.85-.52-2.68-.8a23.26,23.26,0,0,1-4-1.72,8.68,8.68,0,0,1-2.68-2.12,3.63,3.63,0,0,1-.53-.87"/><path class="cls-9" d="M165.94,44.12c0,2.77-8.7,5.07-20.25,5.59-1.6.08-3.26.11-5,.11h-1.38c-1.09,0-2.16,0-3.21-.08-1.89-.08-3.71-.21-5.43-.38l-1.1-.11c-1.73-.19-3.34-.43-4.81-.7a38,38,0,0,1-4.39-1,14.45,14.45,0,0,1-3.4-1.43c-1-.61-1.49-1.26-1.49-1.94,0-3.15,11.29-5.7,25.21-5.7S165.94,41,165.94,44.12Z"/><path class="cls-1" d="M169.85,42.33a3.71,3.71,0,0,1-.62,1.05,9.34,9.34,0,0,1-3,2.3,25.19,25.19,0,0,1-3.7,1.54c-.83.28-1.73.55-2.68.8-1.16.3-2.39.58-3.7.83-.86.17-1.76.32-2.68.47-1.19.18-2.43.34-3.7.47-.88.1-1.77.19-2.68.26-1.21.1-2.44.17-3.7.23-.88,0-1.78.06-2.68.08l-2.09,0H137l-2.69-.07c-1.36-.06-2.69-.13-4-.24-.91-.07-1.8-.15-2.68-.25q-2.07-.21-4-.51c-.92-.15-1.82-.3-2.68-.47-1.31-.25-2.54-.54-3.7-.84-1-.26-1.85-.52-2.68-.81a24.11,24.11,0,0,1-4-1.71,9,9,0,0,1-2.68-2.12,4.06,4.06,0,0,1-.53-.87"/><path class="cls-1" d="M107.35,42.48a2.79,2.79,0,0,1-.24-1.12V27.43a1.69,1.69,0,0,0,0,.23,1.46,1.46,0,0,0,0,.22v0a2.85,2.85,0,0,0,.11.39.24.24,0,0,0,0,.08,1.42,1.42,0,0,0,.08.18,1.92,1.92,0,0,0,.12.25l.09.17.18.27a1.83,1.83,0,0,0,.13.16,5.81,5.81,0,0,0,.64.7l.24.2a11.73,11.73,0,0,0,1.8,1.23c.47.26,1,.52,1.55.77l.4.17c.43.18.88.36,1.36.53l.68.24.75.24,1,.29,1,.27.7.18.51.13.47.11c.65.15,1.33.29,2,.42l1.39.26h0l1,.17.29,0c1.28.2,2.61.38,4,.52l.65.07h0l.44,0,.51,0,.75.06.32,0,.89.06.81.06.55,0,.47,0,.78,0,.49,0,1.13,0c.48,0,1,0,1.45,0h1.72l2.09,0c.9,0,1.8,0,2.68-.09,1.26-.05,2.49-.13,3.7-.22.91-.08,1.8-.16,2.68-.26,1.27-.14,2.51-.3,3.7-.48.92-.14,1.82-.3,2.68-.46,1.31-.25,2.54-.53,3.7-.84.95-.25,1.85-.51,2.68-.8a25.22,25.22,0,0,0,3.7-1.53,9.48,9.48,0,0,0,3-2.3,3.19,3.19,0,0,0,.8-2V41.36a2.77,2.77,0,0,1-.18,1"/><path class="cls-2" d="M107.15,27.92a2.85,2.85,0,0,0,.11.39A2.85,2.85,0,0,1,107.15,27.92Z"/><path class="cls-3" d="M110.56,31.55V45.47a9,9,0,0,1-2.68-2.12V29.42a5.81,5.81,0,0,0,.64.7l.24.2A11.73,11.73,0,0,0,110.56,31.55Z"/><path class="cls-3" d="M117.23,34.06V48c-1-.26-1.85-.52-2.68-.81V33.26l.75.24,1,.29Z"/><path class="cls-3" d="M123.61,35.37V49.3c-.92-.15-1.82-.3-2.68-.47V34.9l1.39.26h0l1,.17Z"/><path class="cls-3" d="M130.28,36.14V50.06c-.91-.07-1.8-.15-2.68-.25V35.89l.65.07h0l.44,0,.51,0,.75.06Z"/><path class="cls-3" d="M137,36.44V50.37l-2.69-.07V36.37l1.13,0c.48,0,1,0,1.45,0H137Z"/><path class="cls-3" d="M143.34,36.35V50.28c-.88,0-1.78.06-2.68.08V36.44C141.56,36.42,142.46,36.39,143.34,36.35Z"/><path class="cls-3" d="M149.72,35.87V49.79c-.88.1-1.77.19-2.68.26V36.13C148,36.05,148.84,36,149.72,35.87Z"/><path class="cls-3" d="M156.1,34.93V48.85c-.86.17-1.76.32-2.68.47V35.39C154.34,35.25,155.24,35.09,156.1,34.93Z"/><path class="cls-3" d="M162.48,33.29V47.22c-.83.28-1.73.55-2.68.8V34.09C160.75,33.84,161.65,33.58,162.48,33.29Z"/><path class="cls-3" d="M169.23,29.46V43.38a9.34,9.34,0,0,1-3,2.3V31.76A9.48,9.48,0,0,0,169.23,29.46Z"/><path class="cls-4" d="M138.7,21.6c-13.92,0-25.21,2.55-25.21,5.7,0,.67.53,1.33,1.49,1.93a14.86,14.86,0,0,0,3.4,1.44,40.19,40.19,0,0,0,4.39,1c1.47.27,3.08.5,4.81.69.36.05.73.08,1.1.12,1.72.17,3.54.29,5.43.37q1.57.08,3.21.09h1.38c1.7,0,3.36,0,5-.11,11.55-.52,20.25-2.83,20.25-5.59C163.91,24.15,152.62,21.6,138.7,21.6Z"/><path class="cls-5" d="M107.11,27.43a1.69,1.69,0,0,0,0,.23,1.46,1.46,0,0,0,0,.22v0a2.85,2.85,0,0,0,.11.39.24.24,0,0,0,0,.08,1.42,1.42,0,0,0,.08.18,1.92,1.92,0,0,0,.12.25l.09.17.18.27a1.83,1.83,0,0,0,.13.16,5.81,5.81,0,0,0,.64.7l.24.2a11.73,11.73,0,0,0,1.8,1.23c.47.26,1,.52,1.55.77l.4.17c.43.18.88.36,1.36.53s.93.33,1.43.48l1,.29q.81.24,1.68.45l.51.13.47.11c1.08.25,2.22.47,3.41.68h0l1,.17c1.57.25,3.22.46,4.93.63h0l.44,0,.51,0,.75.06c.4,0,.8.07,1.21.09l.81.06.55,0,.47,0,.78,0q.79,0,1.62.06l1.45,0h1.72c17.38,0,31.46-4,31.46-9"/><path class="cls-4" d="M163.9,27.43a.57.57,0,0,0,0-.13c0-3.15-11.29-5.7-25.21-5.7s-25.21,2.55-25.21,5.7c0,0,0,.09,0,.13"/><path class="cls-6" d="M107.11,27.43c0-5,14.08-9,31.46-9s31.46,4.05,31.46,9"/><path class="cls-7" d="M143.66,32.89l-6.81,3.55h0c-.49,0-1,0-1.45,0s-1.09,0-1.62-.06l-.78,0-.47,0-.55,0-.81-.06L137.32,33h1.38C140.4,33,142.06,33,143.66,32.89Z"/><path class="cls-7" d="M134.11,32.9,128.26,36h0c-1.71-.17-3.36-.38-4.93-.63l5.36-2.8C130.4,32.7,132.22,32.82,134.11,32.9Z"/><path class="cls-7" d="M127.58,32.41l-5.26,2.75h0c-1.19-.21-2.33-.43-3.41-.68l-.47-.11-.51-.13,4.84-2.52C124.24,32,125.85,32.22,127.58,32.41Z"/><path class="cls-7" d="M118.38,30.67,113.87,33c-.48-.17-.93-.35-1.36-.53l-.4-.17c-.56-.25-1.08-.51-1.55-.77L115,29.23A14.86,14.86,0,0,0,118.38,30.67Z"/><path class="cls-8" d="M165.75,27.3c-.56,7-18.42,6.28-23.68,6.51-4.43.21-9.06.2-13.51,0-4.66-.38-9.34-.7-13.69-2.61-2.11-.89-4.23-3.3-2.7-5.67a6.25,6.25,0,0,1,2.69-2.21,31,31,0,0,1,10.3-2.3,100.46,100.46,0,0,1,13.54-.24c5.63-.13,26.37-1,27.05,6.49Zm-3.68,0c0,.11.06.19,0,.16a3.33,3.33,0,0,0-1.19-.88c-6.88-3-14.71-3.73-22.21-4.2a95.55,95.55,0,0,0-13.14,1.49,37.65,37.65,0,0,0-9,2.73,3.6,3.6,0,0,0-1.2.86s0-.05,0-.16,0-.2,0-.17a9.3,9.3,0,0,0,4,2c1.56.37,3.07.95,4.67,1.22,9.13,1.85,18.75,2.48,27.89.5a38.76,38.76,0,0,0,9-2.83,4,4,0,0,0,1.2-.88s0,.05,0,.17Z"/><path class="cls-4" d="M169.85,42.33a3.71,3.71,0,0,1-.62,1.05,9.34,9.34,0,0,1-3,2.3,25.19,25.19,0,0,1-3.7,1.54c-.83.28-1.73.55-2.68.8-1.16.3-2.39.58-3.7.83-.86.17-1.76.32-2.68.47-1.19.18-2.43.34-3.7.47-.88.1-1.77.19-2.68.26-1.21.1-2.44.17-3.7.23-.88,0-1.78.06-2.68.08l-2.09,0H137l-2.69-.07c-1.36-.06-2.69-.13-4-.24-.91-.07-1.8-.15-2.68-.25q-2.07-.21-4-.51c-.92-.15-1.82-.3-2.68-.47-1.31-.25-2.54-.54-3.7-.84-1-.26-1.85-.52-2.68-.81a24.11,24.11,0,0,1-4-1.71,9,9,0,0,1-2.68-2.12,4.06,4.06,0,0,1-.53-.87"/><path class="cls-9" d="M163.91,27.3c0,2.76-8.7,5.07-20.25,5.59-1.6.07-3.26.11-5,.11h-1.38q-1.63,0-3.21-.09c-1.89-.08-3.71-.2-5.43-.37-.37,0-.74-.07-1.1-.12-1.73-.19-3.34-.42-4.81-.69a40.19,40.19,0,0,1-4.39-1,14.86,14.86,0,0,1-3.4-1.44c-1-.6-1.49-1.26-1.49-1.93,0-3.15,11.29-5.7,25.21-5.7S163.91,24.15,163.91,27.3Z"/><path class="cls-1" d="M167.53,24.92a3.76,3.76,0,0,1-.62,1.06,9.59,9.59,0,0,1-3,2.3,25.22,25.22,0,0,1-3.7,1.53c-.83.28-1.73.55-2.68.8-1.16.31-2.39.58-3.7.84-.86.16-1.76.32-2.68.46-1.19.18-2.43.34-3.7.48-.88.1-1.77.18-2.68.25-1.21.1-2.44.18-3.7.23-.88,0-1.78.07-2.69.09l-2.08,0-1.61,0c-.91,0-1.81,0-2.69-.07-1.36,0-2.69-.13-4-.23-.91-.07-1.8-.15-2.68-.25-1.38-.15-2.71-.32-4-.52-.92-.14-1.82-.3-2.68-.46-1.31-.26-2.54-.54-3.7-.85-1-.25-1.85-.52-2.68-.8a23.26,23.26,0,0,1-4-1.72,8.68,8.68,0,0,1-2.68-2.12,3.63,3.63,0,0,1-.53-.87"/><path class="cls-1" d="M105,25.07a2.75,2.75,0,0,1-.24-1.12V10a1.77,1.77,0,0,0,0,.23.83.83,0,0,0,0,.22v0a3.69,3.69,0,0,0,.1.39l0,.09a.89.89,0,0,0,.08.17,1.23,1.23,0,0,0,.12.26l.09.16.18.28.13.15a5.14,5.14,0,0,0,.64.7l.24.21a11,11,0,0,0,1.8,1.22c.47.26,1,.52,1.55.77l.4.18c.43.18.88.35,1.36.53l.68.23c.24.09.49.17.75.25l1,.29,1,.27.7.18.51.12.47.11c.65.15,1.33.3,2,.43l1.39.26h0l1,.16.29,0c1.28.2,2.61.37,4,.52l.65.07h0l.44,0,.51,0,.75.06.32,0,.89.06.81.05.55,0,.47,0,.78,0,.49,0,1.13,0,1.45,0h1.72c.7,0,1.39,0,2.08,0,.91,0,1.81,0,2.69-.08,1.26-.06,2.49-.13,3.7-.23.91-.07,1.8-.16,2.68-.25,1.27-.14,2.51-.3,3.7-.48.92-.15,1.82-.3,2.68-.47,1.31-.25,2.54-.53,3.7-.83,1-.25,1.85-.52,2.68-.8a25.22,25.22,0,0,0,3.7-1.53,9.6,9.6,0,0,0,3-2.31,3.19,3.19,0,0,0,.8-2V24a2.73,2.73,0,0,1-.18,1"/><path class="cls-2" d="M104.83,10.51c0,.13.06.26.1.39A3.69,3.69,0,0,1,104.83,10.51Z"/><path class="cls-3" d="M108.24,14.14V28.06a8.68,8.68,0,0,1-2.68-2.12V12a5.14,5.14,0,0,0,.64.7l.24.21A11,11,0,0,0,108.24,14.14Z"/><path class="cls-3" d="M114.91,16.66V30.58c-1-.25-1.85-.52-2.68-.8V15.85c.24.09.49.17.75.25l1,.29Z"/><path class="cls-3" d="M121.29,18V31.89c-.92-.14-1.82-.3-2.68-.46V17.5l1.39.26h0l1,.16Z"/><path class="cls-3" d="M128,18.74V32.66c-.91-.07-1.8-.15-2.68-.25V18.49l.65.07h0l.44,0,.51,0,.75.06Z"/><path class="cls-3" d="M134.64,19V33c-.91,0-1.81,0-2.69-.07V19l1.13,0,1.45,0h.11Z"/><path class="cls-3" d="M141,19V32.87c-.88,0-1.78.07-2.69.09V19C139.24,19,140.14,19,141,19Z"/><path class="cls-3" d="M147.4,18.47V32.39c-.88.1-1.77.18-2.68.25V18.72C145.63,18.65,146.52,18.56,147.4,18.47Z"/><path class="cls-3" d="M153.78,17.52V31.45c-.86.16-1.76.32-2.68.46V18C152,17.84,152.92,17.69,153.78,17.52Z"/><path class="cls-3" d="M160.16,15.89V29.81c-.83.28-1.73.55-2.68.8V16.69C158.43,16.44,159.33,16.17,160.16,15.89Z"/><path class="cls-3" d="M166.91,12.05V26a9.59,9.59,0,0,1-3,2.3V14.36A9.6,9.6,0,0,0,166.91,12.05Z"/><path class="cls-4" d="M136.38,4.19c-13.92,0-25.21,2.55-25.21,5.7,0,.68.53,1.33,1.49,1.94a14.45,14.45,0,0,0,3.4,1.43,38,38,0,0,0,4.39,1.05c1.47.27,3.08.51,4.8.7l1.11.11c1.72.18,3.54.3,5.43.38q1.58.06,3.21.09h1.38c1.7,0,3.36,0,5-.11,11.55-.52,20.25-2.82,20.25-5.59C161.59,6.74,150.3,4.19,136.38,4.19Z"/><path class="cls-5" d="M104.79,10a1.77,1.77,0,0,0,0,.23.83.83,0,0,0,0,.22v0a3.69,3.69,0,0,0,.1.39l0,.09a.89.89,0,0,0,.08.17,1.23,1.23,0,0,0,.12.26l.09.16.18.28.13.15a5.14,5.14,0,0,0,.64.7l.24.21a11,11,0,0,0,1.8,1.22c.47.26,1,.52,1.55.77l.4.18c.43.18.88.35,1.36.53l1.43.48,1,.29,1.68.45.51.12.47.11c1.08.25,2.22.48,3.41.69h0l1,.16c1.57.25,3.22.46,4.93.64h0l.44,0,.51,0,.75.06,1.21.09.81.05.55,0,.47,0,.78,0,1.62.06,1.45,0h1.72c17.37,0,31.46-4,31.46-9"/><path class="cls-4" d="M161.58,10a.66.66,0,0,0,0-.14c0-3.15-11.29-5.7-25.21-5.7s-25.21,2.55-25.21,5.7a.66.66,0,0,0,0,.14"/><path class="cls-6" d="M104.79,10c0-5,14.08-9,31.46-9s31.46,4,31.46,9"/><path class="cls-7" d="M141.34,15.48,134.53,19h0l-1.45,0L131.46,19l-.78,0-.47,0-.55,0-.81-.05L135,15.59h1.38C138.08,15.59,139.74,15.56,141.34,15.48Z"/><path class="cls-7" d="M131.79,15.5l-5.85,3.06h0c-1.71-.18-3.36-.39-4.93-.64l5.36-2.8C128.08,15.3,129.9,15.42,131.79,15.5Z"/><path class="cls-7" d="M125.25,15,120,17.76h0c-1.19-.21-2.33-.44-3.41-.69l-.47-.11-.51-.12,4.84-2.53C121.92,14.58,123.53,14.82,125.25,15Z"/><path class="cls-7" d="M116.06,13.26l-4.51,2.36c-.48-.18-.93-.35-1.36-.53l-.4-.18c-.56-.25-1.08-.51-1.55-.77l4.42-2.31A14.45,14.45,0,0,0,116.06,13.26Z"/><path class="cls-8" d="M163.43,9.89c-.56,7-18.42,6.29-23.68,6.52-4.43.2-9.06.2-13.52,0-4.65-.39-9.34-.7-13.68-2.61-2.11-.9-4.23-3.3-2.7-5.68a6.32,6.32,0,0,1,2.69-2.21,31.54,31.54,0,0,1,10.3-2.3,102.13,102.13,0,0,1,13.54-.24c5.63-.13,26.37-1,27.05,6.49Zm-3.68,0a.27.27,0,0,0,0,.16,3.45,3.45,0,0,0-1.19-.88c-6.89-3-14.71-3.72-22.21-4.19a92.54,92.54,0,0,0-13.14,1.49,38.31,38.31,0,0,0-9.06,2.72,3.67,3.67,0,0,0-1.19.87s0-.06,0-.17-.05-.2,0-.16a9.4,9.4,0,0,0,4,2c1.56.38,3.07.95,4.67,1.22,9.13,1.85,18.75,2.48,27.89.51a38.55,38.55,0,0,0,9-2.84,4.06,4.06,0,0,0,1.21-.87s0,0,0,.16Z"/><path class="cls-4" d="M167.53,24.92a3.76,3.76,0,0,1-.62,1.06,9.59,9.59,0,0,1-3,2.3,25.22,25.22,0,0,1-3.7,1.53c-.83.28-1.73.55-2.68.8-1.16.31-2.39.58-3.7.84-.86.16-1.76.32-2.68.46-1.19.18-2.43.34-3.7.48-.88.1-1.77.18-2.68.25-1.21.1-2.44.18-3.7.23-.88,0-1.78.07-2.69.09l-2.08,0-1.61,0c-.91,0-1.81,0-2.69-.07-1.36,0-2.69-.13-4-.23-.91-.07-1.8-.15-2.68-.25-1.38-.15-2.71-.32-4-.52-.92-.14-1.82-.3-2.68-.46-1.31-.26-2.54-.54-3.7-.85-1-.25-1.85-.52-2.68-.8a23.26,23.26,0,0,1-4-1.72,8.68,8.68,0,0,1-2.68-2.12,3.63,3.63,0,0,1-.53-.87"/><path class="cls-9" d="M161.59,9.89c0,2.77-8.7,5.07-20.25,5.59-1.6.08-3.26.11-5,.11H135q-1.63,0-3.21-.09c-1.89-.08-3.71-.2-5.43-.38L125.25,15c-1.72-.19-3.33-.43-4.8-.7a38,38,0,0,1-4.39-1.05,14.45,14.45,0,0,1-3.4-1.43c-1-.61-1.49-1.26-1.49-1.94,0-3.15,11.29-5.7,25.21-5.7S161.59,6.74,161.59,9.89Z"/><text class="cls-10" transform="translate(138.7 93.37) scale(1.11 1)">BET</text><text class="cls-11" transform="translate(0.5 40.35) scale(1.05 1)">STEVE</text><text/><text/></g></g></svg>