<svg xmlns="http://www.w3.org/2000/svg" viewBox="0 0 141.47 159.66"><defs><style>.cls-1{fill:white;}</style></defs><g id="Layer_2" data-name="Layer 2"><g id="Layer_2-2" data-name="Layer 2"><path class="cls-1" d="M27.51,36.66S32.75,33.56,43,35.5c0,0-48.69,11.83-42.48,74.69A21,21,0,0,1,13.93,98s-.77,14.55,29.1,21.72,56.45,18.24,50.05,40c0,0,17.46-19.21-1.16-42.68,0,0-27.74-26.39-2.14-48.11,0,0,12.23,16.49,25.61,18.81,0,0,5.24,18.38,11.64,9.58,0,0,15.71,6.91,14.36-15.78a76.17,76.17,0,0,0-7.18-11.64S131.69,58.2,127,50.24c0,0,3.3,5,12.8,4.08a19.73,19.73,0,0,1-9.31-13.78c-1.74-9.89-15.13-12.22-16.49-10.47s5-2.91.58-13a24.37,24.37,0,0,1,.59-10.28s-6.6.58-9.32,11.64c0,0-3.29-10.67,5.05-18.43,0,0-16.1,2.13-18.62,17.46C92.31,17.46,59.13,1.55,27.51,36.66Z"/></g></g></svg>